Pollon.ufo
<glyph name="quotedbl" format="1">
  <advance width="388"/>
  <unicode hex="0022"/>
  <outline>
    <contour>
      <point x="239" y="1234" type="line"/>
      <point x="165" y="913" type="line"/>
      <point x="63" y="1180" type="line"/>
      <point x="212" y="1501" type="line"/>
    </contour>
    <contour>
      <point x="265" y="1234" type="line"/>
      <point x="212" y="913" type="line"/>
      <point x="91" y="1180" type="line"/>
      <point x="239" y="1501" type="line"/>
    </contour>
  </outline>
</glyph>
<glyph name="quotesingle" format="1">
  <advance width="202"/>
  <unicode hex="0027"/>
  <outline>
    <contour>
      <point x="104" y="1234" type="line"/>
      <point x="136" y="1180" type="line"/>
      <point x="47" y="1180" type="line"/>
      <point x="89" y="1234" type="line"/>
    </contour>
  </outline>
</glyph>
<glyph name="plus" format="1">
  <advance width="725"/>
  <unicode hex="002B"/>
  <outline>
    <contour>
      <point x="285" y="922" type="line"/>
      <point x="285" y="508" type="line"/>
      <point x="63" y="508" type="line"/>
      <point x="63" y="539" type="line"/>
      <point x="470" y="539" type="line"/>
      <point x="470" y="312" type="line"/>
      <point x="439" y="312" type="line"/>
      <point x="439" y="724" type="line"/>
      <point x="660" y="724" type="line"/>
      <point x="660" y="694" type="line"/>
      <point x="255" y="694" type="line"/>
      <point x="255" y="922" type="line"/>
    </contour>
  </outline>
</glyph>
<glyph name="hyphen" format="1">
  <advance width="775"/>
  <unicode hex="002D"/>
  <outline>
    <contour>
      <point x="150" y="487" type="line"/>
      <point x="150" y="672" type="line"/>
      <point x="626" y="672" type="line"/>
      <point x="626" y="487" type="line"/>
    </contour>
  </outline>
</glyph>
<glyph name="slash" format="1">
  <advance width="492"/>
  <unicode hex="002F"/>
  <outline>
    <contour>
      <point x="54" y="-19" type="line"/>
      <point x="208" y="631" type="line"/>
      <point x="441" y="1374" type="line"/>
      <point x="285" y="724" type="line"/>
    </contour>
  </outline>
</glyph>
<glyph name="seven" format="1">
  <advance width="1126"/>
  <unicode hex="0037"/>
  <outline>
    <contour>
      <point x="279" y="-10" type="line"/>
      <point x="290" y="124"/>
      <point x="686" y="788"/>
      <point x="739" y="906" type="curve" smooth="yes"/>
      <point x="742" y="913"/>
      <point x="744" y="920"/>
      <point x="744" y="927" type="curve" smooth="yes"/>
      <point x="744" y="1028"/>
      <point x="361" y="1049"/>
      <point x="365" y="1067" type="curve"/>
      <point x="156" y="924" type="line"/>
      <point x="64" y="1074" type="line"/>
      <point x="437" y="1282" type="line"/>
      <point x="1077" y="1176" type="line"/>
      <point x="1069" y="1121"/>
      <point x="1030" y="979"/>
      <point x="991" y="892" type="curve" smooth="yes"/>
      <point x="951" y="804"/>
      <point x="574" y="147"/>
      <point x="564" y="-10" type="curve"/>
    </contour>
  </outline>
</glyph>
<glyph name="less" format="1">
  <advance width="1007"/>
  <unicode hex="003C"/>
  <outline>
    <contour>
      <point x="632" y="823" type="line"/>
      <point x="39" y="757" type="line"/>
      <point x="871" y="661" type="line"/>
      <point x="871" y="447" type="line"/>
      <point x="45" y="644" type="line"/>
      <point x="188" y="612" type="line"/>
      <point x="871" y="742" type="line"/>
    </contour>
  </outline>
</glyph>
<glyph name="equal" format="1">
  <advance width="625"/>
  <unicode hex="003D"/>
  <outline>
    <contour>
      <point x="73" y="488" type="line"/>
      <point x="73" y="528" type="line"/>
      <point x="552" y="528" type="line"/>
      <point x="552" y="488" type="line"/>
    </contour>
    <contour>
      <point x="73" y="866" type="line"/>
      <point x="73" y="903" type="line"/>
      <point x="552" y="903" type="line"/>
      <point x="552" y="866" type="line"/>
    </contour>
  </outline>
</glyph>
<glyph name="greater" format="1">
  <advance width="1052"/>
  <unicode hex="003E"/>
  <outline>
    <contour>
      <point x="1034" y="606" type="line"/>
      <point x="794" y="413" type="line"/>
      <point x="112" y="286" type="line"/>
      <point x="255" y="429" type="line"/>
      <point x="705" y="750" type="line"/>
      <point x="112" y="1141" type="line"/>
      <point x="351" y="1061" type="line"/>
    </contour>
  </outline>
</glyph>
<glyph name="A" format="1">
  <advance width="1214"/>
  <unicode hex="0041"/>
  <outline>
    <contour>
      <point x="798" y="541" type="line"/>
      <point x="609" y="1176" type="line"/>
      <point x="603" y="1176" type="line"/>
      <point x="415" y="541" type="line"/>
    </contour>
    <contour>
      <point x="1167" y="144" type="line" smooth="yes"/>
      <point x="1172" y="129"/>
      <point x="1174" y="115"/>
      <point x="1174" y="102" type="curve" smooth="yes"/>
      <point x="1174" y="39"/>
      <point x="1119" y="0"/>
      <point x="1061" y="0" type="curve" smooth="yes"/>
      <point x="1012" y="0"/>
      <point x="962" y="27"/>
      <point x="940" y="89" type="curve" smooth="yes"/>
      <point x="850" y="340" type="line"/>
      <point x="362" y="340" type="line"/>
      <point x="274" y="89" type="line" smooth="yes"/>
      <point x="252" y="27"/>
      <point x="202" y="0"/>
      <point x="153" y="0" type="curve" smooth="yes"/>
      <point x="95" y="0"/>
      <point x="40" y="39"/>
      <point x="40" y="102" type="curve" smooth="yes"/>
      <point x="40" y="115"/>
      <point x="42" y="129"/>
      <point x="47" y="144" type="curve" smooth="yes"/>
      <point x="429" y="1288" type="line" smooth="yes"/>
      <point x="452" y="1357"/>
      <point x="530" y="1391"/>
      <point x="609" y="1391" type="curve" smooth="yes"/>
      <point x="687" y="1391"/>
      <point x="767" y="1357"/>
      <point x="790" y="1288" type="curve" smooth="yes"/>
    </contour>
  </outline>
</glyph>
<glyph name="B" format="1">
  <advance width="1144"/>
  <unicode hex="0042"/>
  <outline>
    <contour>
      <point x="82" y="0" type="line"/>
      <point x="82" y="1282" type="line"/>
      <point x="777" y="1282" type="line" smooth="yes"/>
      <point x="971" y="1282"/>
      <point x="1060" y="1207"/>
      <point x="1060" y="1010" type="curve" smooth="yes"/>
      <point x="1060" y="1010"/>
      <point x="1058" y="865"/>
      <point x="1048" y="843" type="curve"/>
      <point x="1037" y="756"/>
      <point x="986" y="707"/>
      <point x="883" y="691" type="curve"/>
      <point x="1054" y="663"/>
      <point x="1072" y="526"/>
      <point x="1072" y="348" type="curve" smooth="yes"/>
      <point x="1072" y="124"/>
      <point x="988" y="0"/>
      <point x="740" y="0" type="curve" smooth="yes"/>
    </contour>
    <contour>
      <point x="823" y="324" type="curve"/>
      <point x="823" y="324"/>
      <point x="823" y="403"/>
      <point x="823" y="459" type="curve" smooth="yes"/>
      <point x="823" y="557"/>
      <point x="792" y="594"/>
      <point x="710" y="594" type="curve" smooth="yes"/>
      <point x="329" y="594" type="line"/>
      <point x="329" y="203" type="line"/>
      <point x="336" y="203"/>
      <point x="695" y="202"/>
      <point x="698" y="202" type="curve" smooth="yes"/>
      <point x="787" y="202"/>
      <point x="823" y="236"/>
    </contour>
    <contour>
      <point x="808" y="1011" type="line" smooth="yes"/>
      <point x="808" y="1072"/>
      <point x="783" y="1097"/>
      <point x="714" y="1097" type="curve" smooth="yes"/>
      <point x="329" y="1097" type="line"/>
      <point x="329" y="779" type="line"/>
      <point x="713" y="779" type="line" smooth="yes"/>
      <point x="789" y="779"/>
      <point x="808" y="820"/>
      <point x="808" y="883" type="curve" smooth="yes"/>
    </contour>
  </outline>
</glyph>
<glyph name="C" format="1">
  <advance width="1281"/>
  <unicode hex="0043"/>
  <outline>
    <contour>
      <point x="1147" y="506" type="line"/>
      <point x="1147" y="320" type="line" smooth="yes"/>
      <point x="1147" y="92"/>
      <point x="1049" y="-7"/>
      <point x="825" y="-7" type="curve" smooth="yes"/>
      <point x="825" y="-7"/>
      <point x="465" y="-7"/>
      <point x="464" y="-7" type="curve" smooth="yes"/>
      <point x="254" y="-7"/>
      <point x="142" y="98"/>
      <point x="142" y="321" type="curve" smooth="yes"/>
      <point x="142" y="944" type="line" smooth="yes"/>
      <point x="142" y="1184"/>
      <point x="227" y="1287"/>
      <point x="467" y="1287" type="curve" smooth="yes"/>
      <point x="469" y="1287"/>
      <point x="834" y="1287"/>
      <point x="836" y="1287" type="curve" smooth="yes"/>
      <point x="1040" y="1286"/>
      <point x="1143" y="1202"/>
      <point x="1143" y="988" type="curve" smooth="yes"/>
      <point x="1143" y="812" type="line"/>
      <point x="895" y="793" type="line"/>
      <point x="895" y="945" type="line" smooth="yes"/>
      <point x="895" y="1064"/>
      <point x="891" y="1069"/>
      <point x="647" y="1069" type="curve" smooth="yes"/>
      <point x="393" y="1069"/>
      <point x="391" y="1063"/>
      <point x="391" y="948" type="curve" smooth="yes"/>
      <point x="391" y="323" type="line" smooth="yes"/>
      <point x="391" y="214"/>
      <point x="395" y="208"/>
      <point x="647" y="208" type="curve" smooth="yes"/>
      <point x="890" y="208"/>
      <point x="895" y="211"/>
      <point x="895" y="323" type="curve" smooth="yes"/>
      <point x="895" y="527" type="line"/>
    </contour>
  </outline>
</glyph>
<glyph name="D" format="1">
  <advance width="1353"/>
  <unicode hex="0044"/>
  <outline>
    <contour>
      <point x="153" y="1282" type="line"/>
      <point x="694" y="1282" type="line" smooth="yes"/>
      <point x="993" y="1282"/>
      <point x="1216" y="1264"/>
      <point x="1216" y="888" type="curve" smooth="yes"/>
      <point x="1216" y="758"/>
      <point x="1217" y="609"/>
      <point x="1217" y="407" type="curve" smooth="yes"/>
      <point x="1217" y="20"/>
      <point x="995" y="0"/>
      <point x="693" y="0" type="curve" smooth="yes"/>
      <point x="153" y="0" type="line"/>
    </contour>
    <contour>
      <point x="405" y="208" type="line"/>
      <point x="406" y="208"/>
      <point x="683" y="207"/>
      <point x="686" y="207" type="curve" smooth="yes"/>
      <point x="912" y="207"/>
      <point x="965" y="210"/>
      <point x="965" y="395" type="curve" smooth="yes"/>
      <point x="965" y="398"/>
      <point x="965" y="877"/>
      <point x="965" y="881" type="curve" smooth="yes"/>
      <point x="962" y="1079"/>
      <point x="913" y="1081"/>
      <point x="683" y="1081" type="curve" smooth="yes"/>
      <point x="682" y="1081"/>
      <point x="407" y="1080"/>
      <point x="405" y="1080" type="curve"/>
    </contour>
  </outline>
</glyph>
<glyph name="E" format="1">
  <advance width="1192"/>
  <unicode hex="0045"/>
  <outline>
    <contour>
      <point x="153" y="0" type="line"/>
      <point x="153" y="1282" type="line"/>
      <point x="1040" y="1282" type="line"/>
      <point x="1040" y="1071" type="line"/>
      <point x="406" y="1071" type="line"/>
      <point x="406" y="769" type="line"/>
      <point x="844" y="769" type="line"/>
      <point x="844" y="562" type="line"/>
      <point x="406" y="562" type="line"/>
      <point x="406" y="214" type="line"/>
      <point x="1054" y="214" type="line"/>
      <point x="1054" y="0" type="line"/>
    </contour>
  </outline>
</glyph>
<glyph name="F" format="1">
  <advance width="974"/>
  <unicode hex="0046"/>
  <outline>
    <contour>
      <point x="82" y="1282" type="line"/>
      <point x="962" y="1282" type="line"/>
      <point x="962" y="1069" type="line"/>
      <point x="334" y="1069" type="line"/>
      <point x="334" y="761" type="line"/>
      <point x="748" y="761" type="line"/>
      <point x="748" y="551" type="line"/>
      <point x="334" y="551" type="line"/>
      <point x="334" y="121" type="line" smooth="yes"/>
      <point x="334" y="40"/>
      <point x="271" y="0"/>
      <point x="208" y="0" type="curve" smooth="yes"/>
      <point x="145" y="0"/>
      <point x="82" y="40"/>
      <point x="82" y="121" type="curve" smooth="yes"/>
    </contour>
  </outline>
</glyph>
<glyph name="G" format="1">
  <advance width="1311"/>
  <unicode hex="0047"/>
  <outline>
    <contour>
      <point x="843" y="-7" type="curve"/>
      <point x="842" y="-7"/>
      <point x="457" y="-7"/>
      <point x="456" y="-7" type="curve" smooth="yes"/>
      <point x="247" y="-6"/>
      <point x="141" y="100"/>
      <point x="141" y="331" type="curve" smooth="yes"/>
      <point x="141" y="948" type="line" smooth="yes"/>
      <point x="141" y="1199"/>
      <point x="244" y="1287"/>
      <point x="467" y="1287" type="curve" smooth="yes"/>
      <point x="468" y="1287"/>
      <point x="858" y="1287"/>
      <point x="859" y="1287" type="curve" smooth="yes"/>
      <point x="1080" y="1286"/>
      <point x="1169" y="1192"/>
      <point x="1170" y="974" type="curve" smooth="yes"/>
      <point x="1170" y="971"/>
      <point x="1170" y="869"/>
      <point x="1170" y="866" type="curve"/>
      <point x="922" y="847" type="line"/>
      <point x="922" y="950" type="line" smooth="yes"/>
      <point x="922" y="1070"/>
      <point x="916" y="1070"/>
      <point x="666" y="1070" type="curve" smooth="yes"/>
      <point x="396" y="1070"/>
      <point x="391" y="1066"/>
      <point x="391" y="937" type="curve" smooth="yes"/>
      <point x="391" y="329" type="line" smooth="yes"/>
      <point x="391" y="215"/>
      <point x="398" y="208"/>
      <point x="666" y="208" type="curve" smooth="yes"/>
      <point x="920" y="208"/>
      <point x="922" y="214"/>
      <point x="922" y="330" type="curve" smooth="yes"/>
      <point x="922" y="534" type="line"/>
      <point x="634" y="534" type="line"/>
      <point x="634" y="715" type="line"/>
      <point x="1173" y="715" type="line"/>
      <point x="1173" y="356" type="line"/>
      <point x="1155" y="356" type="line"/>
      <point x="1148" y="290" type="line"/>
      <point x="1140" y="82"/>
      <point x="1050" y="-7"/>
    </contour>
  </outline>
</glyph>
<glyph name="H" format="1">
  <advance width="1198"/>
  <unicode hex="0048"/>
  <outline>
    <contour>
      <point x="313" y="765" type="line"/>
      <point x="885" y="765" type="line"/>
      <point x="885" y="578" type="line"/>
      <point x="313" y="578" type="line"/>
    </contour>
    <contour>
      <point x="81" y="1152" type="line" smooth="yes"/>
      <point x="81" y="1231"/>
      <point x="141" y="1271"/>
      <point x="202" y="1271" type="curve" smooth="yes"/>
      <point x="262" y="1271"/>
      <point x="323" y="1231"/>
      <point x="323" y="1152" type="curve" smooth="yes"/>
      <point x="323" y="119" type="line" smooth="yes"/>
      <point x="323" y="40"/>
      <point x="262" y="0"/>
      <point x="202" y="0" type="curve" smooth="yes"/>
      <point x="141" y="0"/>
      <point x="81" y="40"/>
      <point x="81" y="119" type="curve" smooth="yes"/>
    </contour>
    <contour>
      <point x="876" y="1152" type="line" smooth="yes"/>
      <point x="876" y="1231"/>
      <point x="936" y="1271"/>
      <point x="997" y="1271" type="curve" smooth="yes"/>
      <point x="1057" y="1271"/>
      <point x="1118" y="1231"/>
      <point x="1118" y="1152" type="curve" smooth="yes"/>
      <point x="1118" y="119" type="line" smooth="yes"/>
      <point x="1118" y="40"/>
      <point x="1057" y="0"/>
      <point x="997" y="0" type="curve" smooth="yes"/>
      <point x="936" y="0"/>
      <point x="876" y="40"/>
      <point x="876" y="119" type="curve" smooth="yes"/>
    </contour>
  </outline>
</glyph>
<glyph name="I" format="1">
  <advance width="398"/>
  <unicode hex="0049"/>
  <outline>
    <contour>
      <point x="79" y="1152" type="line" smooth="yes"/>
      <point x="79" y="1231"/>
      <point x="139" y="1271"/>
      <point x="200" y="1271" type="curve" smooth="yes"/>
      <point x="260" y="1271"/>
      <point x="321" y="1231"/>
      <point x="321" y="1152" type="curve" smooth="yes"/>
      <point x="321" y="119" type="line" smooth="yes"/>
      <point x="321" y="40"/>
      <point x="260" y="0"/>
      <point x="200" y="0" type="curve" smooth="yes"/>
      <point x="139" y="0"/>
      <point x="79" y="40"/>
      <point x="79" y="119" type="curve" smooth="yes"/>
    </contour>
  </outline>
</glyph>
<glyph name="J" format="1">
  <advance width="1070"/>
  <unicode hex="004A"/>
  <outline>
    <contour>
      <point x="354" y="-7" type="curve" smooth="yes"/>
      <point x="147" y="-7"/>
      <point x="31" y="78"/>
      <point x="31" y="293" type="curve" smooth="yes"/>
      <point x="31" y="583" type="line"/>
      <point x="278" y="604" type="line"/>
      <point x="278" y="299" type="line" smooth="yes"/>
      <point x="278" y="219"/>
      <point x="281" y="214"/>
      <point x="475" y="214" type="curve" smooth="yes"/>
      <point x="669" y="214"/>
      <point x="673" y="219"/>
      <point x="673" y="304" type="curve" smooth="yes"/>
      <point x="673" y="311"/>
      <point x="672" y="1282"/>
      <point x="672" y="1282" type="curve"/>
      <point x="924" y="1282" type="line"/>
      <point x="924" y="313" type="line" smooth="yes"/>
      <point x="924" y="95"/>
      <point x="821" y="-4"/>
      <point x="608" y="-7" type="curve" smooth="yes"/>
      <point x="606" y="-7"/>
      <point x="357" y="-7"/>
    </contour>
  </outline>
</glyph>
<glyph name="K" format="1">
  <advance width="1303"/>
  <unicode hex="004B"/>
  <outline>
    <contour>
      <point x="152" y="0" type="line"/>
      <point x="152" y="1282" type="line"/>
      <point x="402" y="1282" type="line"/>
      <point x="402" y="752" type="line"/>
      <point x="852" y="1282" type="line"/>
      <point x="1151" y="1282" type="line"/>
      <point x="623" y="682" type="line"/>
      <point x="1216" y="0" type="line"/>
      <point x="892" y="0" type="line"/>
      <point x="402" y="600" type="line"/>
      <point x="402" y="0" type="line"/>
    </contour>
  </outline>
</glyph>
<glyph name="L" format="1">
  <advance width="1037"/>
  <unicode hex="004C"/>
  <outline>
    <contour>
      <point x="152" y="0" type="line"/>
      <point x="152" y="1282" type="line"/>
      <point x="403" y="1282" type="line"/>
      <point x="403" y="216" type="line"/>
      <point x="1019" y="216" type="line"/>
      <point x="1019" y="0" type="line"/>
    </contour>
  </outline>
</glyph>
<glyph name="M" format="1">
  <advance width="1810"/>
  <unicode hex="004D"/>
  <outline>
    <contour>
      <point x="904" y="-25" type="line" smooth="yes"/>
      <point x="965" y="-25"/>
      <point x="1025" y="15"/>
      <point x="1025" y="94" type="curve" smooth="yes"/>
      <point x="1025" y="794" type="line" smooth="yes"/>
      <point x="1025" y="997"/>
      <point x="1109" y="1075"/>
      <point x="1275" y="1075" type="curve" smooth="yes"/>
      <point x="1421" y="1075"/>
      <point x="1491" y="993"/>
      <point x="1491" y="808" type="curve" smooth="yes"/>
      <point x="1491" y="94" type="line" smooth="yes"/>
      <point x="1491" y="15"/>
      <point x="1552" y="-25"/>
      <point x="1612" y="-25" type="curve" smooth="yes"/>
      <point x="1673" y="-25"/>
      <point x="1733" y="15"/>
      <point x="1733" y="94" type="curve" smooth="yes"/>
      <point x="1733" y="791" type="line" smooth="yes"/>
      <point x="1733" y="1200"/>
      <point x="1496" y="1272"/>
      <point x="1275" y="1272" type="curve" smooth="yes"/>
      <point x="1130" y="1272"/>
      <point x="976" y="1216"/>
      <point x="905" y="1072" type="curve"/>
      <point x="834" y="1216"/>
      <point x="680" y="1272"/>
      <point x="535" y="1272" type="curve" smooth="yes"/>
      <point x="314" y="1272"/>
      <point x="77" y="1200"/>
      <point x="77" y="791" type="curve" smooth="yes"/>
      <point x="77" y="94" type="line" smooth="yes"/>
      <point x="77" y="15"/>
      <point x="137" y="-25"/>
      <point x="198" y="-25" type="curve" smooth="yes"/>
      <point x="258" y="-25"/>
      <point x="319" y="15"/>
      <point x="319" y="94" type="curve" smooth="yes"/>
      <point x="319" y="808" type="line" smooth="yes"/>
      <point x="319" y="993"/>
      <point x="389" y="1075"/>
      <point x="535" y="1075" type="curve" smooth="yes"/>
      <point x="701" y="1075"/>
      <point x="785" y="997"/>
      <point x="785" y="794" type="curve" smooth="yes"/>
      <point x="785" y="94" type="line" smooth="yes"/>
      <point x="785" y="15"/>
      <point x="845" y="-25"/>
      <point x="906" y="-25" type="curve" smooth="yes"/>
    </contour>
  </outline>
</glyph>
<glyph name="N" format="1">
  <advance width="1202"/>
  <unicode hex="004E"/>
  <outline>
    <contour>
      <point x="1122" y="128" type="line" smooth="yes"/>
      <point x="1122" y="49"/>
      <point x="1080" y="2"/>
      <point x="1025" y="2" type="curve" smooth="yes"/>
      <point x="986" y="2"/>
      <point x="940" y="26"/>
      <point x="899" y="80" type="curve" smooth="yes"/>
      <point x="293" y="888" type="line"/>
      <point x="293" y="121" type="line" smooth="yes"/>
      <point x="293" y="41"/>
      <point x="240" y="0"/>
      <point x="187" y="0" type="curve" smooth="yes"/>
      <point x="134" y="0"/>
      <point x="81" y="41"/>
      <point x="81" y="121" type="curve" smooth="yes"/>
      <point x="81" y="1148" type="line" smooth="yes"/>
      <point x="81" y="1231"/>
      <point x="137" y="1282"/>
      <point x="202" y="1282" type="curve" smooth="yes"/>
      <point x="242" y="1282"/>
      <point x="286" y="1262"/>
      <point x="322" y="1218" type="curve"/>
      <point x="914" y="419" type="line"/>
      <point x="914" y="1176" type="line" smooth="yes"/>
      <point x="914" y="1245"/>
      <point x="966" y="1281"/>
      <point x="1018" y="1281" type="curve" smooth="yes"/>
      <point x="1070" y="1281"/>
      <point x="1122" y="1246"/>
      <point x="1122" y="1176" type="curve" smooth="yes"/>
    </contour>
  </outline>
</glyph>
<glyph name="O" format="1">
  <advance width="1470"/>
  <unicode hex="004F"/>
  <outline>
    <contour>
      <point x="735" y="-24" type="curve" smooth="yes"/>
      <point x="283" y="-24"/>
      <point x="57" y="300"/>
      <point x="57" y="623" type="curve" smooth="yes"/>
      <point x="57" y="947"/>
      <point x="283" y="1271"/>
      <point x="735" y="1271" type="curve" smooth="yes"/>
      <point x="1187" y="1271"/>
      <point x="1413" y="947"/>
      <point x="1413" y="623" type="curve" smooth="yes"/>
      <point x="1413" y="300"/>
      <point x="1187" y="-24"/>
    </contour>
    <contour>
      <point x="735" y="1076" type="curve" smooth="yes"/>
      <point x="446" y="1076"/>
      <point x="301" y="850"/>
      <point x="301" y="624" type="curve" smooth="yes"/>
      <point x="301" y="398"/>
      <point x="446" y="172"/>
      <point x="735" y="172" type="curve" smooth="yes"/>
      <point x="1024" y="172"/>
      <point x="1169" y="398"/>
      <point x="1169" y="624" type="curve" smooth="yes"/>
      <point x="1169" y="850"/>
      <point x="1024" y="1076"/>
    </contour>
  </outline>
</glyph>
<glyph name="P" format="1">
  <advance width="1121"/>
  <unicode hex="0050"/>
  <outline>
    <contour>
      <point x="79" y="1352" type="line"/>
      <point x="316" y="1352" type="line"/>
      <point x="316" y="118" type="line" smooth="yes"/>
      <point x="316" y="-38"/>
      <point x="79" y="-39"/>
      <point x="79" y="118" type="curve" smooth="yes"/>
    </contour>
    <contour>
      <point x="316" y="745" type="line"/>
      <point x="652" y="745" type="line" smooth="yes"/>
      <point x="809" y="745"/>
      <point x="871" y="801"/>
      <point x="871" y="955" type="curve" smooth="yes"/>
      <point x="871" y="1112"/>
      <point x="801" y="1167"/>
      <point x="660" y="1167" type="curve" smooth="yes"/>
      <point x="316" y="1167" type="line"/>
      <point x="316" y="1352" type="line"/>
      <point x="594" y="1352" type="line" smooth="yes"/>
      <point x="941" y="1352"/>
      <point x="1108" y="1264"/>
      <point x="1108" y="952" type="curve"/>
      <point x="1106" y="669"/>
      <point x="968" y="564"/>
      <point x="604" y="564" type="curve" smooth="yes"/>
      <point x="316" y="564" type="line"/>
    </contour>
  </outline>
</glyph>
<glyph name="R" format="1">
  <advance width="1304"/>
  <unicode hex="0052"/>
  <outline>
    <contour>
      <point x="152" y="1282" type="line"/>
      <point x="873" y="1282" type="line" smooth="yes"/>
      <point x="1142" y="1282"/>
      <point x="1138" y="1116"/>
      <point x="1138" y="840" type="curve" smooth="yes"/>
      <point x="1138" y="658"/>
      <point x="1029" y="602"/>
      <point x="863" y="587" type="curve"/>
      <point x="878" y="585"/>
      <point x="946" y="467"/>
      <point x="946" y="456" type="curve" smooth="yes"/>
      <point x="946" y="424"/>
      <point x="1186" y="17"/>
      <point x="1186" y="0" type="curve"/>
      <point x="890" y="0" type="line"/>
      <point x="694" y="409" type="line"/>
      <point x="694" y="419"/>
      <point x="620" y="543"/>
      <point x="611" y="543" type="curve" smooth="yes"/>
      <point x="610" y="543"/>
      <point x="406" y="543"/>
      <point x="404" y="543" type="curve" smooth="yes"/>
      <point x="404" y="543"/>
      <point x="404" y="59"/>
      <point x="404" y="0" type="curve"/>
      <point x="152" y="0" type="line"/>
    </contour>
    <contour>
      <point x="405" y="739" type="line"/>
      <point x="794" y="739" type="line" smooth="yes"/>
      <point x="892" y="739"/>
      <point x="889" y="799"/>
      <point x="889" y="954" type="curve" smooth="yes"/>
      <point x="889" y="1053"/>
      <point x="862" y="1079"/>
      <point x="764" y="1079" type="curve" smooth="yes"/>
      <point x="405" y="1079" type="line"/>
    </contour>
  </outline>
</glyph>
<glyph name="S" format="1">
  <advance width="1257"/>
  <unicode hex="0053"/>
  <outline>
    <contour>
      <point x="381" y="348" type="line" smooth="yes"/>
      <point x="381" y="238"/>
      <point x="385" y="231"/>
      <point x="612" y="231" type="curve" smooth="yes"/>
      <point x="887" y="231"/>
      <point x="890" y="237"/>
      <point x="890" y="351" type="curve" smooth="yes"/>
      <point x="890" y="485"/>
      <point x="884" y="491"/>
      <point x="698" y="529" type="curve" smooth="yes"/>
      <point x="410" y="587" type="line"/>
      <point x="164" y="632"/>
      <point x="111" y="703"/>
      <point x="111" y="959" type="curve" smooth="yes"/>
      <point x="111" y="1217"/>
      <point x="214" y="1291"/>
      <point x="447" y="1291" type="curve" smooth="yes"/>
      <point x="789" y="1291" type="line" smooth="yes"/>
      <point x="1081" y="1291"/>
      <point x="1116" y="1220"/>
      <point x="1116" y="943" type="curve"/>
      <point x="872" y="918" type="line"/>
      <point x="872" y="1003" type="line" smooth="yes"/>
      <point x="872" y="1053"/>
      <point x="868" y="1057"/>
      <point x="638" y="1057" type="curve" smooth="yes"/>
      <point x="374" y="1057"/>
      <point x="370" y="1053"/>
      <point x="370" y="953" type="curve" smooth="yes"/>
      <point x="370" y="859"/>
      <point x="372" y="858"/>
      <point x="590" y="819" type="curve"/>
      <point x="854" y="766" type="line"/>
      <point x="1092" y="725"/>
      <point x="1139" y="688"/>
      <point x="1139" y="340" type="curve" smooth="yes"/>
      <point x="1139" y="116"/>
      <point x="1073" y="-7"/>
      <point x="824" y="-7" type="curve" smooth="yes"/>
      <point x="448" y="-7" type="line" smooth="yes"/>
      <point x="184" y="-7"/>
      <point x="123" y="88"/>
      <point x="123" y="330" type="curve" smooth="yes"/>
      <point x="123" y="412" type="line"/>
      <point x="381" y="434" type="line"/>
    </contour>
  </outline>
</glyph>
<glyph name="T" format="1">
  <advance width="1057"/>
  <unicode hex="0054"/>
  <outline>
    <contour>
      <point x="401" y="1070" type="line"/>
      <point x="35" y="1070" type="line"/>
      <point x="35" y="1282" type="line"/>
      <point x="1022" y="1282" type="line"/>
      <point x="1022" y="1070" type="line"/>
      <point x="653" y="1070" type="line"/>
      <point x="653" y="121" type="line" smooth="yes"/>
      <point x="653" y="40"/>
      <point x="590" y="0"/>
      <point x="527" y="0" type="curve" smooth="yes"/>
      <point x="464" y="0"/>
      <point x="401" y="40"/>
      <point x="401" y="121" type="curve" smooth="yes"/>
    </contour>
  </outline>
</glyph>
<glyph name="U" format="1">
  <advance width="1183"/>
  <unicode hex="0055"/>
  <outline>
    <contour>
      <point x="1107" y="385" type="line" smooth="yes"/>
      <point x="1107" y="95"/>
      <point x="1017" y="-25"/>
      <point x="588" y="-25" type="curve" smooth="yes"/>
      <point x="164" y="-25"/>
      <point x="77" y="99"/>
      <point x="77" y="385" type="curve" smooth="yes"/>
      <point x="77" y="1152" type="line" smooth="yes"/>
      <point x="77" y="1231"/>
      <point x="137" y="1271"/>
      <point x="198" y="1271" type="curve" smooth="yes"/>
      <point x="258" y="1271"/>
      <point x="319" y="1231"/>
      <point x="319" y="1152" type="curve" smooth="yes"/>
      <point x="319" y="398" type="line" smooth="yes"/>
      <point x="319" y="253"/>
      <point x="324" y="171"/>
      <point x="592" y="171" type="curve" smooth="yes"/>
      <point x="862" y="171"/>
      <point x="865" y="266"/>
      <point x="865" y="398" type="curve" smooth="yes"/>
      <point x="865" y="1152" type="line" smooth="yes"/>
      <point x="865" y="1231"/>
      <point x="925" y="1271"/>
      <point x="986" y="1271" type="curve" smooth="yes"/>
      <point x="1046" y="1271"/>
      <point x="1107" y="1231"/>
      <point x="1107" y="1152" type="curve" smooth="yes"/>
    </contour>
  </outline>
</glyph>
<glyph name="V" format="1">
  <advance width="1251"/>
  <unicode hex="0056"/>
  <outline>
    <contour>
      <point x="487" y="0" type="line"/>
      <point x="62" y="1282" type="line"/>
      <point x="321" y="1282" type="line"/>
      <point x="633" y="328" type="line"/>
      <point x="936" y="1282" type="line"/>
      <point x="1186" y="1282" type="line"/>
      <point x="775" y="0" type="line"/>
    </contour>
  </outline>
</glyph>
<glyph name="W" format="1">
  <advance width="1730"/>
  <unicode hex="0057"/>
  <outline>
    <contour>
      <point x="399" y="0" type="line"/>
      <point x="97" y="1282" type="line"/>
      <point x="346" y="1282" type="line"/>
      <point x="552" y="373" type="line"/>
      <point x="774" y="1282" type="line"/>
      <point x="975" y="1282" type="line"/>
      <point x="1189" y="373" type="line"/>
      <point x="1396" y="1282" type="line"/>
      <point x="1634" y="1282" type="line"/>
      <point x="1331" y="0" type="line"/>
      <point x="1078" y="0" type="line"/>
      <point x="871" y="786" type="line"/>
      <point x="660" y="0" type="line"/>
    </contour>
  </outline>
</glyph>
<glyph name="X" format="1">
  <advance width="1357"/>
  <unicode hex="0058"/>
  <outline>
    <contour>
      <point x="115" y="0" type="line"/>
      <point x="491" y="671" type="line"/>
      <point x="127" y="1282" type="line"/>
      <point x="419" y="1282" type="line"/>
      <point x="671" y="822" type="line"/>
      <point x="907" y="1282" type="line"/>
      <point x="1180" y="1282" type="line"/>
      <point x="847" y="681" type="line"/>
      <point x="1255" y="0" type="line"/>
      <point x="958" y="0" type="line"/>
      <point x="668" y="524" type="line"/>
      <point x="395" y="0" type="line"/>
    </contour>
  </outline>
</glyph>
<glyph name="Y" format="1">
  <advance width="1191"/>
  <unicode hex="0059"/>
  <outline>
    <contour>
      <point x="476" y="0" type="line"/>
      <point x="476" y="487" type="line"/>
      <point x="47" y="1282" type="line"/>
      <point x="321" y="1282" type="line"/>
      <point x="601" y="783" type="line"/>
      <point x="871" y="1282" type="line"/>
      <point x="1143" y="1282" type="line"/>
      <point x="717" y="490" type="line"/>
      <point x="717" y="0" type="line"/>
    </contour>
  </outline>
</glyph>
<glyph name="Z" format="1">
  <advance width="1228"/>
  <unicode hex="005A"/>
  <outline>
    <contour>
      <point x="128" y="0" type="line"/>
      <point x="128" y="170" type="line"/>
      <point x="759" y="1069" type="line"/>
      <point x="184" y="1069" type="line"/>
      <point x="184" y="1282" type="line"/>
      <point x="1087" y="1282" type="line"/>
      <point x="1087" y="1123" type="line"/>
      <point x="444" y="214" type="line"/>
      <point x="1079" y="214" type="line"/>
      <point x="1079" y="0" type="line"/>
    </contour>
  </outline>
</glyph>
<glyph name="bracketleft" format="1">
  <advance width="388"/>
  <unicode hex="005B"/>
  <outline>
    <contour>
      <point x="160" y="651" type="line"/>
      <point x="160" y="1184" type="line"/>
      <point x="307" y="1184" type="line"/>
      <point x="307" y="684" type="line"/>
      <point x="244" y="684" type="line"/>
      <point x="244" y="47" type="line"/>
      <point x="160" y="47" type="line"/>
    </contour>
  </outline>
</glyph>
<glyph name="backslash" format="1">
  <advance width="371"/>
  <unicode hex="005C"/>
  <outline>
    <contour>
      <point x="66" y="631" type="line"/>
      <point x="202" y="724" type="line"/>
      <point x="296" y="724" type="line"/>
      <point x="159" y="631" type="line"/>
    </contour>
  </outline>
</glyph>
<glyph name="bracketright" format="1">
  <advance width="498"/>
  <unicode hex="005D"/>
  <outline>
    <contour>
      <point x="91" y="532" type="line"/>
      <point x="6" y="598" type="line"/>
      <point x="154" y="717" type="line"/>
      <point x="386" y="1236" type="line"/>
      <point x="239" y="566" type="line"/>
      <point x="6" y="631" type="line"/>
      <point x="237" y="750" type="line"/>
      <point x="322" y="99" type="line"/>
    </contour>
  </outline>
</glyph>
<glyph name="asciicircum" format="1">
  <advance width="1204"/>
  <unicode hex="005E"/>
  <outline>
    <contour>
      <point x="729" y="1415" type="line"/>
      <point x="1137" y="703" type="line"/>
      <point x="903" y="703" type="line"/>
      <point x="603" y="1218" type="line"/>
      <point x="301" y="703" type="line"/>
      <point x="66" y="703" type="line"/>
      <point x="476" y="1415" type="line"/>
    </contour>
  </outline>
</glyph>
<glyph name="underscore" format="1">
  <advance width="762"/>
  <unicode hex="005F"/>
  <outline>
    <contour>
      <point x="222" y="-320" type="line"/>
      <point x="222" y="-280" type="line"/>
      <point x="541" y="-280" type="line"/>
      <point x="541" y="-320" type="line"/>
    </contour>
  </outline>
</glyph>
<glyph name="grave" format="1">
  <advance width="281"/>
  <unicode hex="0060"/>
  <outline>
    <contour>
      <point x="126" y="1260" type="line"/>
      <point x="64" y="1406" type="line"/>
      <point x="101" y="1516" type="line"/>
      <point x="204" y="1422" type="line"/>
    </contour>
  </outline>
</glyph>
<glyph name="a" format="1">
  <advance width="1202"/>
  <unicode hex="0061"/>
  <outline>
    <contour>
      <point x="120" y="282" type="curve" smooth="yes"/>
      <point x="120" y="513"/>
      <point x="202" y="590"/>
      <point x="392" y="601" type="curve"/>
      <point x="397" y="603"/>
      <point x="805" y="608"/>
      <point x="823" y="614" type="curve"/>
      <point x="821" y="742"/>
      <point x="835" y="854"/>
      <point x="796" y="877" type="curve" smooth="yes"/>
      <point x="769" y="893"/>
      <point x="717" y="895"/>
      <point x="612" y="895" type="curve" smooth="yes"/>
      <point x="403" y="895"/>
      <point x="400" y="891"/>
      <point x="400" y="791" type="curve" smooth="yes"/>
      <point x="400" y="709" type="line"/>
      <point x="164" y="729" type="line"/>
      <point x="164" y="731"/>
      <point x="164" y="782"/>
      <point x="164" y="784" type="curve" smooth="yes"/>
      <point x="164" y="1090"/>
      <point x="322" y="1093"/>
      <point x="756" y="1093" type="curve" smooth="yes"/>
      <point x="946" y="1093"/>
      <point x="1057" y="1000"/>
      <point x="1057" y="789" type="curve" smooth="yes"/>
      <point x="1057" y="0" type="line"/>
      <point x="859" y="0" type="line"/>
      <point x="844" y="90" type="line"/>
      <point x="768" y="37"/>
      <point x="665" y="-7"/>
      <point x="527" y="-7" type="curve" smooth="yes"/>
      <point x="333" y="-7"/>
      <point x="255" y="8"/>
      <point x="211" y="47" type="curve" smooth="yes"/>
      <point x="159" y="92"/>
      <point x="120" y="166"/>
    </contour>
    <contour>
      <point x="355" y="307" type="curve" smooth="yes"/>
      <point x="355" y="188"/>
      <point x="358" y="177"/>
      <point x="585" y="177" type="curve" smooth="yes"/>
      <point x="745" y="177"/>
      <point x="823" y="212"/>
      <point x="823" y="217" type="curve" smooth="yes"/>
      <point x="823" y="449" type="line"/>
      <point x="815" y="446"/>
      <point x="583" y="442"/>
      <point x="580" y="438" type="curve"/>
      <point x="366" y="430"/>
      <point x="355" y="402"/>
    </contour>
  </outline>
</glyph>
<glyph name="b" format="1">
  <advance width="1164"/>
  <unicode hex="0062"/>
  <outline>
    <contour>
      <point x="387" y="40" type="curve"/>
      <point x="387" y="40"/>
      <point x="387" y="13"/>
      <point x="387" y="0" type="curve"/>
      <point x="152" y="0" type="line"/>
      <point x="152" y="1304" type="line"/>
      <point x="387" y="1304" type="line"/>
      <point x="387" y="1007" type="line"/>
      <point x="472" y="1054"/>
      <point x="583" y="1093"/>
      <point x="700" y="1093" type="curve" smooth="yes"/>
      <point x="964" y="1093"/>
      <point x="1080" y="995"/>
      <point x="1080" y="709" type="curve" smooth="yes"/>
      <point x="1080" y="341" type="line" smooth="yes"/>
      <point x="1080" y="117"/>
      <point x="966" y="-2"/>
      <point x="791" y="-2" type="curve" smooth="yes"/>
      <point x="779" y="-2"/>
      <point x="392" y="25"/>
    </contour>
    <contour>
      <point x="387" y="210" type="line" smooth="yes"/>
      <point x="387" y="191"/>
      <point x="609" y="187"/>
      <point x="617" y="187" type="curve" smooth="yes"/>
      <point x="843" y="187"/>
      <point x="845" y="214"/>
      <point x="845" y="349" type="curve" smooth="yes"/>
      <point x="845" y="679" type="line" smooth="yes"/>
      <point x="845" y="890"/>
      <point x="792" y="894"/>
      <point x="670" y="894" type="curve" smooth="yes"/>
      <point x="554" y="894"/>
      <point x="387" y="859"/>
      <point x="387" y="844" type="curve" smooth="yes"/>
    </contour>
  </outline>
</glyph>
<glyph name="c" format="1">
  <advance width="1202"/>
  <unicode hex="0063"/>
  <outline>
    <contour>
      <point x="1071" y="299" type="line" smooth="yes"/>
      <point x="1071" y="99"/>
      <point x="989" y="0"/>
      <point x="791" y="-4" type="curve"/>
      <point x="784" y="-6"/>
      <point x="615" y="-7"/>
      <point x="608" y="-7" type="curve" smooth="yes"/>
      <point x="394" y="-7"/>
      <point x="287" y="-7"/>
      <point x="211" y="75" type="curve" smooth="yes"/>
      <point x="161" y="128"/>
      <point x="139" y="209"/>
      <point x="139" y="313" type="curve" smooth="yes"/>
      <point x="139" y="313"/>
      <point x="139" y="722"/>
      <point x="139" y="760" type="curve" smooth="yes"/>
      <point x="139" y="986"/>
      <point x="209" y="1085"/>
      <point x="421" y="1089" type="curve"/>
      <point x="428" y="1092"/>
      <point x="601" y="1093"/>
      <point x="611" y="1093" type="curve" smooth="yes"/>
      <point x="817" y="1093"/>
      <point x="923" y="1095"/>
      <point x="996" y="1027" type="curve" smooth="yes"/>
      <point x="1044" y="982"/>
      <point x="1069" y="911"/>
      <point x="1069" y="811" type="curve" smooth="yes"/>
      <point x="1069" y="693" type="line"/>
      <point x="834" y="675" type="line"/>
      <point x="834" y="780" type="line" smooth="yes"/>
      <point x="834" y="889"/>
      <point x="832" y="894"/>
      <point x="604" y="894" type="curve" smooth="yes"/>
      <point x="377" y="894"/>
      <point x="373" y="889"/>
      <point x="373" y="779" type="curve" smooth="yes"/>
      <point x="373" y="300" type="line" smooth="yes"/>
      <point x="373" y="199"/>
      <point x="376" y="191"/>
      <point x="603" y="191" type="curve" smooth="yes"/>
      <point x="827" y="191"/>
      <point x="834" y="193"/>
      <point x="834" y="300" type="curve" smooth="yes"/>
      <point x="834" y="441" type="line"/>
      <point x="1071" y="421" type="line"/>
    </contour>
  </outline>
</glyph>
<glyph name="d" format="1">
  <advance width="1053"/>
  <unicode hex="0064"/>
  <outline>
    <contour>
      <point x="330" y="1" type="line" smooth="yes"/>
      <point x="116" y="1"/>
      <point x="42" y="170"/>
      <point x="42" y="420" type="curve" smooth="yes"/>
      <point x="42" y="714" type="line" smooth="yes"/>
      <point x="42" y="975"/>
      <point x="154" y="1093"/>
      <point x="450" y="1093" type="curve" smooth="yes"/>
      <point x="558" y="1093"/>
      <point x="736" y="1066"/>
      <point x="736" y="1066" type="curve"/>
      <point x="736" y="1343" type="line"/>
      <point x="970" y="1343" type="line"/>
      <point x="970" y="1" type="line"/>
    </contour>
    <contour>
      <point x="276" y="408" type="line" smooth="yes"/>
      <point x="276" y="209"/>
      <point x="276" y="187"/>
      <point x="526" y="187" type="curve" smooth="yes"/>
      <point x="536" y="187"/>
      <point x="736" y="190"/>
      <point x="736" y="192" type="curve" smooth="yes"/>
      <point x="736" y="874" type="line" smooth="yes"/>
      <point x="736" y="878"/>
      <point x="572" y="894"/>
      <point x="453" y="894" type="curve" smooth="yes"/>
      <point x="311" y="894"/>
      <point x="276" y="884"/>
      <point x="276" y="679" type="curve" smooth="yes"/>
    </contour>
  </outline>
</glyph>
<glyph name="e" format="1">
  <advance width="1045"/>
  <unicode hex="0065"/>
  <outline>
    <contour>
      <point x="945" y="46" type="line"/>
      <point x="846" y="3"/>
      <point x="732" y="-24"/>
      <point x="586" y="-24" type="curve" smooth="yes"/>
      <point x="254" y="-24"/>
      <point x="61" y="86"/>
      <point x="61" y="505" type="curve" smooth="yes"/>
      <point x="61" y="881"/>
      <point x="263" y="990"/>
      <point x="544" y="990" type="curve" smooth="yes"/>
      <point x="717" y="990"/>
      <point x="984" y="917"/>
      <point x="984" y="652" type="curve" smooth="yes"/>
      <point x="984" y="602"/>
      <point x="981" y="546"/>
      <point x="969" y="444" type="curve"/>
      <point x="294" y="444" type="line"/>
      <point x="294" y="306"/>
      <point x="294" y="154"/>
      <point x="586" y="154" type="curve" smooth="yes"/>
      <point x="768" y="154"/>
      <point x="887" y="217"/>
      <point x="887" y="217" type="curve"/>
    </contour>
    <contour>
      <point x="294" y="589" type="curve"/>
      <point x="788" y="589" type="line"/>
      <point x="788" y="764"/>
      <point x="718" y="826"/>
      <point x="543" y="826" type="curve" smooth="yes"/>
      <point x="378" y="826"/>
      <point x="294" y="759"/>
    </contour>
  </outline>
</glyph>
<glyph name="g" format="1">
  <advance width="1200"/>
  <unicode hex="0067"/>
  <outline>
    <contour>
      <point x="476" y="-393" type="curve" smooth="yes"/>
      <point x="280" y="-393"/>
      <point x="195" y="-326"/>
      <point x="183" y="-157" type="curve"/>
      <point x="180" y="-155"/>
      <point x="177" y="-121"/>
      <point x="174" y="-119" type="curve"/>
      <point x="382" y="-73" type="line"/>
      <point x="385" y="-75"/>
      <point x="387" y="-128"/>
      <point x="390" y="-129" type="curve"/>
      <point x="398" y="-209"/>
      <point x="406" y="-211"/>
      <point x="529" y="-211" type="curve" smooth="yes"/>
      <point x="814" y="-211"/>
      <point x="823" y="-202"/>
      <point x="822" y="-14" type="curve" smooth="yes"/>
      <point x="821" y="104" type="line"/>
      <point x="740" y="56"/>
      <point x="628" y="19"/>
      <point x="505" y="19" type="curve" smooth="yes"/>
      <point x="228" y="19"/>
      <point x="128" y="139"/>
      <point x="128" y="401" type="curve" smooth="yes"/>
      <point x="128" y="785" type="line" smooth="yes"/>
      <point x="128" y="1001"/>
      <point x="228" y="1093"/>
      <point x="415" y="1093" type="curve" smooth="yes"/>
      <point x="426" y="1093"/>
      <point x="599" y="1088"/>
      <point x="603" y="1070" type="curve"/>
      <point x="762" y="1091" type="line"/>
      <point x="928" y="1091"/>
      <point x="1056" y="1011"/>
      <point x="1056" y="833" type="curve" smooth="yes"/>
      <point x="1057" y="-11" type="line" smooth="yes"/>
      <point x="1057" y="-402"/>
      <point x="870" y="-393"/>
    </contour>
    <contour>
      <point x="592" y="895" type="curve" smooth="yes"/>
      <point x="364" y="895"/>
      <point x="363" y="887"/>
      <point x="363" y="786" type="curve" smooth="yes"/>
      <point x="363" y="432" type="line" smooth="yes"/>
      <point x="363" y="229"/>
      <point x="419" y="217"/>
      <point x="556" y="217" type="curve" smooth="yes"/>
      <point x="666" y="217"/>
      <point x="821" y="246"/>
      <point x="821" y="258" type="curve" smooth="yes"/>
      <point x="821" y="786" type="line" smooth="yes"/>
      <point x="821" y="886"/>
      <point x="818" y="895"/>
    </contour>
  </outline>
</glyph>
<glyph name="h" format="1">
  <advance width="1052"/>
  <unicode hex="0068"/>
  <outline>
    <contour>
      <point x="200" y="1341" type="curve" smooth="yes"/>
      <point x="259" y="1341"/>
      <point x="317" y="1316"/>
      <point x="317" y="1254" type="curve" smooth="yes"/>
      <point x="317" y="0" type="line"/>
      <point x="83" y="0" type="line"/>
      <point x="83" y="1254" type="line" smooth="yes"/>
      <point x="83" y="1316"/>
      <point x="141" y="1341"/>
    </contour>
    <contour>
      <point x="317" y="794" type="curve"/>
      <point x="286" y="794"/>
      <point x="276" y="822"/>
      <point x="276" y="855" type="curve" smooth="yes"/>
      <point x="276" y="904"/>
      <point x="297" y="966"/>
      <point x="297" y="966" type="curve"/>
      <point x="404" y="1038"/>
      <point x="524" y="1069"/>
      <point x="634" y="1069" type="curve" smooth="yes"/>
      <point x="838" y="1069"/>
      <point x="1009" y="962"/>
      <point x="1009" y="812" type="curve" smooth="yes"/>
      <point x="1009" y="0" type="line"/>
      <point x="776" y="0" type="line"/>
      <point x="776" y="798" type="line" smooth="yes"/>
      <point x="776" y="864"/>
      <point x="700" y="892"/>
      <point x="608" y="892" type="curve" smooth="yes"/>
      <point x="500" y="892"/>
      <point x="371" y="854"/>
    </contour>
  </outline>
</glyph>
<glyph name="i" format="1">
  <advance width="398"/>
  <unicode hex="0069"/>
  <outline>
    <contour>
      <point x="316" y="0" type="line"/>
      <point x="82" y="0" type="line"/>
      <point x="82" y="954" type="line"/>
      <point x="316" y="954" type="line"/>
    </contour>
    <contour>
      <point x="57" y="1245" type="curve" smooth="yes"/>
      <point x="57" y="1321"/>
      <point x="127" y="1351"/>
      <point x="199" y="1351" type="curve" smooth="yes"/>
      <point x="272" y="1351"/>
      <point x="342" y="1321"/>
      <point x="342" y="1245" type="curve" smooth="yes"/>
      <point x="342" y="1170"/>
      <point x="272" y="1140"/>
      <point x="199" y="1140" type="curve" smooth="yes"/>
      <point x="127" y="1140"/>
      <point x="57" y="1170"/>
    </contour>
  </outline>
</glyph>
<glyph name="k" format="1">
  <advance width="1132"/>
  <unicode hex="006B"/>
  <outline>
    <contour>
      <point x="786" y="1046" type="line"/>
      <point x="1074" y="1046" type="line"/>
      <point x="608" y="555" type="line"/>
      <point x="1120" y="0" type="line"/>
      <point x="823" y="0" type="line"/>
      <point x="327" y="555" type="line"/>
    </contour>
    <contour>
      <point x="200" y="1351" type="curve" smooth="yes"/>
      <point x="259" y="1351"/>
      <point x="317" y="1326"/>
      <point x="317" y="1264" type="curve" smooth="yes"/>
      <point x="317" y="0" type="line"/>
      <point x="83" y="0" type="line"/>
      <point x="83" y="1264" type="line" smooth="yes"/>
      <point x="83" y="1326"/>
      <point x="141" y="1351"/>
    </contour>
  </outline>
</glyph>
<glyph name="l" format="1">
  <advance width="394"/>
  <unicode hex="006C"/>
  <outline>
    <contour>
      <point x="81" y="1364" type="line" smooth="yes"/>
      <point x="81" y="1426"/>
      <point x="139" y="1451"/>
      <point x="198" y="1451" type="curve" smooth="yes"/>
      <point x="257" y="1451"/>
      <point x="315" y="1426"/>
      <point x="315" y="1364" type="curve" smooth="yes"/>
      <point x="315" y="86" type="line" smooth="yes"/>
      <point x="315" y="28"/>
      <point x="256" y="0"/>
      <point x="198" y="0" type="curve" smooth="yes"/>
      <point x="139" y="0"/>
      <point x="81" y="28"/>
      <point x="81" y="86" type="curve" smooth="yes"/>
    </contour>
  </outline>
</glyph>
<glyph name="m" format="1">
  <advance width="1637"/>
  <unicode hex="006D"/>
  <outline>
    <contour>
      <point x="937" y="81" type="line" smooth="yes"/>
      <point x="937" y="27"/>
      <point x="878" y="1"/>
      <point x="820" y="1" type="curve" smooth="yes"/>
      <point x="761" y="1"/>
      <point x="703" y="27"/>
      <point x="703" y="81" type="curve" smooth="yes"/>
      <point x="703" y="798" type="line" smooth="yes"/>
      <point x="703" y="864"/>
      <point x="641" y="892"/>
      <point x="565" y="892" type="curve" smooth="yes"/>
      <point x="473" y="892"/>
      <point x="360" y="854"/>
      <point x="314" y="794" type="curve"/>
      <point x="314" y="81" type="line" smooth="yes"/>
      <point x="314" y="27"/>
      <point x="255" y="1"/>
      <point x="197" y="1" type="curve" smooth="yes"/>
      <point x="138" y="1"/>
      <point x="80" y="27"/>
      <point x="80" y="81" type="curve" smooth="yes"/>
      <point x="80" y="959" type="line" smooth="yes"/>
      <point x="80" y="1021"/>
      <point x="133" y="1046"/>
      <point x="187" y="1046" type="curve" smooth="yes"/>
      <point x="240" y="1046"/>
      <point x="294" y="1028"/>
      <point x="294" y="966" type="curve"/>
      <point x="389" y="1038"/>
      <point x="493" y="1069"/>
      <point x="591" y="1069" type="curve" smooth="yes"/>
      <point x="780" y="1069"/>
      <point x="937" y="962"/>
      <point x="937" y="812" type="curve" smooth="yes"/>
    </contour>
    <contour>
      <point x="1559" y="81" type="line" smooth="yes"/>
      <point x="1559" y="27"/>
      <point x="1500" y="1"/>
      <point x="1442" y="1" type="curve" smooth="yes"/>
      <point x="1383" y="1"/>
      <point x="1325" y="27"/>
      <point x="1325" y="81" type="curve" smooth="yes"/>
      <point x="1325" y="798" type="line" smooth="yes"/>
      <point x="1325" y="864"/>
      <point x="1263" y="892"/>
      <point x="1187" y="892" type="curve" smooth="yes"/>
      <point x="1095" y="892"/>
      <point x="983" y="854"/>
      <point x="937" y="794" type="curve"/>
      <point x="866" y="946" type="line"/>
      <point x="976" y="1032"/>
      <point x="1100" y="1069"/>
      <point x="1213" y="1069" type="curve" smooth="yes"/>
      <point x="1402" y="1069"/>
      <point x="1559" y="962"/>
      <point x="1559" y="812" type="curve" smooth="yes"/>
    </contour>
  </outline>
</glyph>
<glyph name="n" format="1">
  <advance width="1141"/>
  <unicode hex="006E"/>
  <outline>
    <contour>
      <point x="80" y="954" type="line"/>
      <point x="239" y="954"/>
      <point x="246" y="954"/>
      <point x="277" y="874" type="curve"/>
      <point x="393" y="953"/>
      <point x="542" y="990"/>
      <point x="661" y="990" type="curve" smooth="yes"/>
      <point x="880" y="990"/>
      <point x="1066" y="864"/>
      <point x="1066" y="690" type="curve" smooth="yes"/>
      <point x="1066" y="-1" type="line"/>
      <point x="833" y="-1" type="line"/>
      <point x="833" y="676" type="line" smooth="yes"/>
      <point x="833" y="770"/>
      <point x="746" y="816"/>
      <point x="639" y="816" type="curve" smooth="yes"/>
      <point x="519" y="816"/>
      <point x="374" y="772"/>
      <point x="314" y="706" type="curve"/>
      <point x="314" y="-1" type="line"/>
      <point x="80" y="-1" type="line"/>
    </contour>
  </outline>
</glyph>
<glyph name="o" format="1">
  <advance width="1226"/>
  <unicode hex="006F"/>
  <outline>
    <contour>
      <point x="57" y="484" type="curve" smooth="yes"/>
      <point x="57" y="138"/>
      <point x="333" y="-35"/>
      <point x="613" y="-35" type="curve" smooth="yes"/>
      <point x="892" y="-35"/>
      <point x="1169" y="138"/>
      <point x="1169" y="484" type="curve" smooth="yes"/>
      <point x="1169" y="820"/>
      <point x="892" y="990"/>
      <point x="613" y="990" type="curve" smooth="yes"/>
      <point x="333" y="990"/>
      <point x="57" y="820"/>
    </contour>
    <contour>
      <point x="282" y="483" type="curve" smooth="yes"/>
      <point x="282" y="709"/>
      <point x="439" y="819"/>
      <point x="611" y="819" type="curve" smooth="yes"/>
      <point x="781" y="819"/>
      <point x="944" y="708"/>
      <point x="944" y="483" type="curve" smooth="yes"/>
      <point x="944" y="257"/>
      <point x="782" y="143"/>
      <point x="613" y="143" type="curve" smooth="yes"/>
      <point x="443" y="143"/>
      <point x="282" y="257"/>
    </contour>
  </outline>
</glyph>
<glyph name="p" format="1">
  <advance width="1124"/>
  <unicode hex="0070"/>
  <outline>
    <contour>
      <point x="314" y="-291" type="line" smooth="yes"/>
      <point x="314" y="-352"/>
      <point x="255" y="-382"/>
      <point x="197" y="-382" type="curve" smooth="yes"/>
      <point x="138" y="-382"/>
      <point x="80" y="-352"/>
      <point x="80" y="-291" type="curve" smooth="yes"/>
      <point x="80" y="959" type="line" smooth="yes"/>
      <point x="80" y="1021"/>
      <point x="133" y="1046"/>
      <point x="187" y="1046" type="curve" smooth="yes"/>
      <point x="240" y="1046"/>
      <point x="294" y="1028"/>
      <point x="294" y="966" type="curve"/>
      <point x="398" y="1038"/>
      <point x="514" y="1072"/>
      <point x="621" y="1072" type="curve" smooth="yes"/>
      <point x="947" y="1072"/>
      <point x="1099" y="796"/>
      <point x="1099" y="522" type="curve" smooth="yes"/>
      <point x="1099" y="192"/>
      <point x="876" y="-24"/>
      <point x="567" y="-24" type="curve" smooth="yes"/>
      <point x="488" y="-24"/>
      <point x="403" y="-9"/>
      <point x="314" y="21" type="curve"/>
    </contour>
    <contour>
      <point x="881" y="527" type="curve" smooth="yes"/>
      <point x="881" y="709"/>
      <point x="787" y="897"/>
      <point x="604" y="897" type="curve" smooth="yes"/>
      <point x="514" y="897"/>
      <point x="412" y="872"/>
      <point x="314" y="819" type="curve"/>
      <point x="314" y="194" type="line"/>
      <point x="392" y="168"/>
      <point x="470" y="153"/>
      <point x="543" y="153" type="curve" smooth="yes"/>
      <point x="731" y="153"/>
      <point x="881" y="253"/>
    </contour>
  </outline>
</glyph>
<glyph name="s" format="1">
  <advance width="1259"/>
  <unicode hex="0073"/>
  <outline>
    <contour>
      <point x="411" y="360" type="line"/>
      <point x="411" y="282" type="line" smooth="yes"/>
      <point x="411" y="191"/>
      <point x="417" y="190"/>
      <point x="601" y="190" type="curve" smooth="yes"/>
      <point x="825" y="190"/>
      <point x="826" y="195"/>
      <point x="826" y="290" type="curve" smooth="yes"/>
      <point x="826" y="397"/>
      <point x="825" y="401"/>
      <point x="672" y="434" type="curve" smooth="yes"/>
      <point x="429" y="486" type="line"/>
      <point x="223" y="527"/>
      <point x="183" y="586"/>
      <point x="183" y="800" type="curve" smooth="yes"/>
      <point x="183" y="1061"/>
      <point x="310" y="1072"/>
      <point x="606" y="1072" type="curve" smooth="yes"/>
      <point x="624" y="1072"/>
      <point x="775" y="1068"/>
      <point x="784" y="1059" type="curve"/>
      <point x="989" y="1050"/>
      <point x="1021" y="995"/>
      <point x="1021" y="815" type="curve" smooth="yes"/>
      <point x="1021" y="780" type="line"/>
      <point x="813" y="760" type="line"/>
      <point x="813" y="825" type="line" smooth="yes"/>
      <point x="813" y="868"/>
      <point x="811" y="878"/>
      <point x="621" y="878" type="curve" smooth="yes"/>
      <point x="406" y="878"/>
      <point x="402" y="875"/>
      <point x="402" y="793" type="curve" smooth="yes"/>
      <point x="402" y="715"/>
      <point x="405" y="710"/>
      <point x="577" y="683" type="curve"/>
      <point x="802" y="635" type="line" smooth="yes"/>
      <point x="1014" y="590"/>
      <point x="1039" y="545"/>
      <point x="1039" y="281" type="curve" smooth="yes"/>
      <point x="1039" y="103"/>
      <point x="986" y="9"/>
      <point x="802" y="0" type="curve"/>
      <point x="793" y="-5"/>
      <point x="631" y="-7"/>
      <point x="618" y="-7" type="curve" smooth="yes"/>
      <point x="600" y="-7"/>
      <point x="435" y="-3"/>
      <point x="426" y="6" type="curve"/>
      <point x="233" y="15"/>
      <point x="191" y="92"/>
      <point x="191" y="276" type="curve" smooth="yes"/>
      <point x="191" y="342" type="line"/>
    </contour>
  </outline>
</glyph>
<glyph name="t" format="1">
  <advance width="686"/>
  <unicode hex="0074"/>
  <outline>
    <contour>
      <point x="579" y="-9" type="curve" smooth="yes"/>
      <point x="567" y="-10"/>
      <point x="549" y="-11"/>
      <point x="529" y="-11" type="curve" smooth="yes"/>
      <point x="263" y="-11"/>
      <point x="175" y="75"/>
      <point x="175" y="354" type="curve" smooth="yes"/>
      <point x="175" y="902" type="line"/>
      <point x="28" y="902" type="line"/>
      <point x="28" y="1062" type="line"/>
      <point x="175" y="1062" type="line"/>
      <point x="175" y="1303" type="line" smooth="yes"/>
      <point x="175" y="1365"/>
      <point x="233" y="1390"/>
      <point x="292" y="1390" type="curve" smooth="yes"/>
      <point x="351" y="1390"/>
      <point x="408" y="1365"/>
      <point x="408" y="1303" type="curve" smooth="yes"/>
      <point x="408" y="1062" type="line"/>
      <point x="591" y="1062" type="line"/>
      <point x="591" y="902" type="line"/>
      <point x="408" y="902" type="line"/>
      <point x="408" y="382" type="line" smooth="yes"/>
      <point x="408" y="188"/>
      <point x="458" y="188"/>
      <point x="579" y="188" type="curve" smooth="yes"/>
      <point x="628" y="188"/>
      <point x="653" y="140"/>
      <point x="653" y="91" type="curve" smooth="yes"/>
      <point x="653" y="43"/>
      <point x="629" y="-5"/>
    </contour>
  </outline>
</glyph>
<glyph name="u" format="1">
  <advance width="1081"/>
  <unicode hex="0075"/>
  <outline>
    <contour>
      <point x="1002" y="86" type="line" smooth="yes"/>
      <point x="1002" y="24"/>
      <point x="949" y="-1"/>
      <point x="895" y="-1" type="curve" smooth="yes"/>
      <point x="842" y="-1"/>
      <point x="788" y="17"/>
      <point x="788" y="79" type="curve"/>
      <point x="678" y="7"/>
      <point x="554" y="-24"/>
      <point x="441" y="-24" type="curve" smooth="yes"/>
      <point x="242" y="-24"/>
      <point x="76" y="95"/>
      <point x="76" y="263" type="curve" smooth="yes"/>
      <point x="76" y="964" type="line" smooth="yes"/>
      <point x="76" y="1018"/>
      <point x="134" y="1044"/>
      <point x="193" y="1044" type="curve" smooth="yes"/>
      <point x="251" y="1044"/>
      <point x="309" y="1018"/>
      <point x="309" y="964" type="curve" smooth="yes"/>
      <point x="309" y="317" type="line" smooth="yes"/>
      <point x="309" y="202"/>
      <point x="385" y="153"/>
      <point x="477" y="153" type="curve" smooth="yes"/>
      <point x="585" y="153"/>
      <point x="714" y="191"/>
      <point x="768" y="251" type="curve"/>
      <point x="768" y="964" type="line" smooth="yes"/>
      <point x="768" y="1018"/>
      <point x="827" y="1044"/>
      <point x="885" y="1044" type="curve" smooth="yes"/>
      <point x="944" y="1044"/>
      <point x="1002" y="1018"/>
      <point x="1002" y="964" type="curve" smooth="yes"/>
    </contour>
  </outline>
</glyph>
<glyph name="v" format="1">
  <advance width="1247"/>
  <unicode hex="0076"/>
  <outline>
    <contour>
      <point x="373" y="1071" type="line"/>
      <point x="630" y="323" type="line"/>
      <point x="880" y="1071" type="line"/>
      <point x="1149" y="1071" type="line"/>
      <point x="769" y="0" type="line"/>
      <point x="489" y="0" type="line"/>
      <point x="96" y="1071" type="line"/>
    </contour>
  </outline>
</glyph>
<glyph name="w" format="1">
  <advance width="1732"/>
  <unicode hex="0077"/>
  <outline>
    <contour>
      <point x="402" y="0" type="line"/>
      <point x="97" y="1071" type="line"/>
      <point x="364" y="1071" type="line"/>
      <point x="552" y="372" type="line"/>
      <point x="773" y="1071" type="line"/>
      <point x="978" y="1071" type="line"/>
      <point x="1190" y="372" type="line"/>
      <point x="1379" y="1071" type="line"/>
      <point x="1636" y="1071" type="line"/>
      <point x="1331" y="0" type="line"/>
      <point x="1079" y="0" type="line"/>
      <point x="871" y="674" type="line"/>
      <point x="660" y="0" type="line"/>
    </contour>
  </outline>
</glyph>
<glyph name="x" format="1">
  <advance width="1361"/>
  <unicode hex="0078"/>
  <outline>
    <contour>
      <point x="116" y="0" type="line"/>
      <point x="425" y="564" type="line"/>
      <point x="127" y="1069" type="line"/>
      <point x="374" y="1069" type="line"/>
      <point x="581" y="684" type="line"/>
      <point x="777" y="1069" type="line"/>
      <point x="1009" y="1069" type="line"/>
      <point x="736" y="571" type="line"/>
      <point x="1069" y="0" type="line"/>
      <point x="819" y="0" type="line"/>
      <point x="578" y="446" type="line"/>
      <point x="352" y="0" type="line"/>
    </contour>
  </outline>
</glyph>
<glyph name="z" format="1">
  <advance width="1144"/>
  <unicode hex="007A"/>
  <outline>
    <contour>
      <point x="130" y="0" type="line"/>
      <point x="130" y="160" type="line"/>
      <point x="684" y="931" type="line"/>
      <point x="182" y="931" type="line"/>
      <point x="182" y="1134" type="line"/>
      <point x="1001" y="1134" type="line"/>
      <point x="1001" y="965" type="line"/>
      <point x="449" y="203" type="line"/>
      <point x="991" y="203" type="line"/>
      <point x="991" y="0" type="line"/>
    </contour>
  </outline>
</glyph>
<glyph name="bar" format="1">
  <advance width="296"/>
  <unicode hex="007C"/>
  <outline>
    <contour>
      <point x="246" y="872" type="line"/>
      <point x="112" y="-315" type="line"/>
      <point x="49" y="428" type="line"/>
      <point x="184" y="1614" type="line"/>
    </contour>
  </outline>
</glyph>
<glyph name="yen" format="1">
  <advance width="1107"/>
  <unicode hex="00A5"/>
  <outline>
    <contour>
      <point x="412" y="200" type="line"/>
      <point x="412" y="507" type="line"/>
      <point x="165" y="507" type="line"/>
      <point x="66" y="940" type="line"/>
      <point x="499" y="940" type="line"/>
      <point x="451" y="811" type="line"/>
      <point x="295" y="1038" type="line"/>
      <point x="441" y="1096" type="line"/>
      <point x="488" y="720" type="line"/>
      <point x="362" y="906" type="line"/>
      <point x="482" y="812" type="line"/>
      <point x="660" y="537" type="line"/>
      <point x="885" y="784" type="line"/>
      <point x="1060" y="784" type="line"/>
      <point x="897" y="500" type="line"/>
      <point x="984" y="500" type="line"/>
      <point x="984" y="368" type="line"/>
      <point x="650" y="368" type="line"/>
      <point x="562" y="344" type="line"/>
      <point x="786" y="344" type="line"/>
      <point x="786" y="384" type="line"/>
      <point x="562" y="384" type="line"/>
      <point x="562" y="200" type="line"/>
    </contour>
  </outline>
</glyph>
<glyph name="brokenbar" format="1">
  <advance width="501"/>
  <unicode hex="00A6"/>
  <outline>
    <contour>
      <point x="350" y="944" type="line"/>
      <point x="350" y="185" type="line"/>
      <point x="153" y="185" type="line"/>
      <point x="153" y="944" type="line"/>
    </contour>
    <contour>
      <point x="350" y="1114" type="line"/>
      <point x="350" y="355" type="line"/>
      <point x="153" y="355" type="line"/>
      <point x="153" y="1114" type="line"/>
    </contour>
  </outline>
</glyph>
<glyph name="dieresis" format="1">
  <advance width="641"/>
  <unicode hex="00A8"/>
  <outline>
    <contour>
      <point x="190" y="1273" type="line"/>
      <point x="190" y="1508" type="line"/>
      <point x="434" y="1508" type="line"/>
      <point x="434" y="1273" type="line"/>
    </contour>
    <contour>
      <point x="208" y="1273" type="line"/>
      <point x="208" y="1508" type="line"/>
      <point x="451" y="1508" type="line"/>
      <point x="451" y="1273" type="line"/>
    </contour>
  </outline>
</glyph>
<glyph name="logicalnot" format="1">
  <advance width="1119"/>
  <unicode hex="00AC"/>
  <outline>
    <contour>
      <point x="701" y="909" type="line"/>
      <point x="1008" y="618" type="line"/>
      <point x="951" y="391" type="line"/>
      <point x="821" y="624" type="line"/>
      <point x="182" y="776" type="line"/>
      <point x="6" y="834" type="line"/>
    </contour>
  </outline>
</glyph>
<glyph name="sfthyphen" format="1">
  <advance width="767"/>
  <unicode hex="00AD"/>
  <outline>
    <contour>
      <point x="161" y="471" type="line"/>
      <point x="161" y="621" type="line"/>
      <point x="607" y="621" type="line"/>
      <point x="607" y="471" type="line"/>
    </contour>
  </outline>
</glyph>
<glyph name="twosuperior" format="1">
  <advance width="980"/>
  <unicode hex="00B2"/>
  <outline>
    <contour>
      <point x="174" y="932" type="line" smooth="yes"/>
      <point x="174" y="1029"/>
      <point x="208" y="1057"/>
      <point x="325" y="1057" type="curve" smooth="yes"/>
      <point x="661" y="1057" type="line" smooth="yes"/>
      <point x="778" y="1057"/>
      <point x="811" y="1029"/>
      <point x="811" y="932" type="curve" smooth="yes"/>
      <point x="811" y="893" type="line" smooth="yes"/>
      <point x="811" y="828"/>
      <point x="796" y="804"/>
      <point x="725" y="764" type="curve" smooth="yes"/>
      <point x="274" y="510" type="line"/>
      <point x="731" y="510" type="line"/>
      <point x="731" y="629" type="line"/>
      <point x="841" y="596" type="line"/>
      <point x="841" y="547" type="line" smooth="yes"/>
      <point x="841" y="453"/>
      <point x="814" y="422"/>
      <point x="690" y="422" type="curve" smooth="yes"/>
      <point x="141" y="422" type="line"/>
      <point x="141" y="461" type="line" smooth="yes"/>
      <point x="141" y="518"/>
      <point x="164" y="542"/>
      <point x="223" y="578" type="curve"/>
      <point x="696" y="848" type="line"/>
      <point x="696" y="971" type="line"/>
      <point x="284" y="971" type="line"/>
      <point x="284" y="823" type="line"/>
      <point x="174" y="850" type="line"/>
    </contour>
  </outline>
</glyph>
<glyph name="threesuperior" format="1">
  <advance width="979"/>
  <unicode hex="00B3"/>
  <outline>
    <contour>
      <point x="297" y="422" type="line" smooth="yes"/>
      <point x="176" y="422"/>
      <point x="147" y="449"/>
      <point x="147" y="547" type="curve" smooth="yes"/>
      <point x="147" y="598" type="line"/>
      <point x="258" y="621" type="line"/>
      <point x="258" y="510" type="line"/>
      <point x="661" y="510" type="line" smooth="yes"/>
      <point x="712" y="510"/>
      <point x="723" y="520"/>
      <point x="723" y="565" type="curve" smooth="yes"/>
      <point x="723" y="651" type="line" smooth="yes"/>
      <point x="723" y="698"/>
      <point x="710" y="709"/>
      <point x="661" y="709" type="curve" smooth="yes"/>
      <point x="413" y="709" type="line"/>
      <point x="413" y="788" type="line"/>
      <point x="634" y="788" type="line" smooth="yes"/>
      <point x="683" y="788"/>
      <point x="696" y="801"/>
      <point x="696" y="862" type="curve" smooth="yes"/>
      <point x="696" y="899" type="line" smooth="yes"/>
      <point x="696" y="958"/>
      <point x="685" y="971"/>
      <point x="634" y="971" type="curve" smooth="yes"/>
      <point x="262" y="971" type="line"/>
      <point x="262" y="872" type="line"/>
      <point x="155" y="893" type="line"/>
      <point x="155" y="932" type="line" smooth="yes"/>
      <point x="155" y="1030"/>
      <point x="189" y="1057"/>
      <point x="307" y="1057" type="curve" smooth="yes"/>
      <point x="661" y="1057" type="line" smooth="yes"/>
      <point x="779" y="1057"/>
      <point x="811" y="1026"/>
      <point x="811" y="932" type="curve" smooth="yes"/>
      <point x="811" y="874" type="line" smooth="yes"/>
      <point x="811" y="802"/>
      <point x="782" y="770"/>
      <point x="705" y="754" type="curve"/>
      <point x="797" y="741"/>
      <point x="835" y="704"/>
      <point x="835" y="625" type="curve" smooth="yes"/>
      <point x="835" y="559" type="line" smooth="yes"/>
      <point x="835" y="455"/>
      <point x="796" y="422"/>
      <point x="677" y="422" type="curve" smooth="yes"/>
    </contour>
  </outline>
</glyph>
<glyph name="acute" format="1">
  <advance width="531"/>
  <unicode hex="00B4"/>
  <outline>
    <contour>
      <point x="48" y="1220" type="line"/>
      <point x="169" y="1516" type="line"/>
      <point x="472" y="1608" type="line"/>
      <point x="310" y="1260" type="line"/>
    </contour>
  </outline>
</glyph>
<glyph name="mu" format="1">
  <advance width="1283"/>
  <unicode hex="00B5"/>
  <outline>
    <contour>
      <point x="548" y="1065" type="line"/>
      <point x="423" y="473" type="line" smooth="yes"/>
      <point x="412" y="421"/>
      <point x="407" y="377"/>
      <point x="407" y="334" type="curve" smooth="yes"/>
      <point x="407" y="178"/>
      <point x="487" y="90"/>
      <point x="632" y="90" type="curve" smooth="yes"/>
      <point x="799" y="90"/>
      <point x="923" y="237"/>
      <point x="980" y="508" type="curve"/>
      <point x="1101" y="1065" type="line"/>
      <point x="1240" y="1065" type="line"/>
      <point x="1076" y="295" type="line" smooth="yes"/>
      <point x="1060" y="222"/>
      <point x="1054" y="186"/>
      <point x="1054" y="162" type="curve" smooth="yes"/>
      <point x="1054" y="118"/>
      <point x="1077" y="96"/>
      <point x="1122" y="96" type="curve" smooth="yes"/>
      <point x="1131" y="96"/>
      <point x="1145" y="97"/>
      <point x="1158" y="98" type="curve"/>
      <point x="1138" y="-12" type="line"/>
      <point x="1113" y="-19"/>
      <point x="1083" y="-23"/>
      <point x="1052" y="-23" type="curve" smooth="yes"/>
      <point x="959" y="-23"/>
      <point x="915" y="24"/>
      <point x="915" y="123" type="curve" smooth="yes"/>
      <point x="915" y="137" type="line"/>
      <point x="859" y="34"/>
      <point x="751" y="-25"/>
      <point x="616" y="-25" type="curve" smooth="yes"/>
      <point x="493" y="-25"/>
      <point x="399" y="30"/>
      <point x="347" y="131" type="curve"/>
      <point x="233" y="-426" type="line"/>
      <point x="93" y="-426" type="line"/>
      <point x="409" y="1065" type="line"/>
    </contour>
  </outline>
</glyph>
<glyph name="middot" format="1">
  <advance width="242"/>
  <unicode hex="00B7"/>
  <outline>
    <contour>
      <point x="129" y="610" type="curve" smooth="yes"/>
      <point x="129" y="643"/>
      <point x="40" y="670"/>
      <point x="40" y="677" type="curve" smooth="yes"/>
      <point x="40" y="678"/>
      <point x="42" y="679"/>
      <point x="48" y="679" type="curve" smooth="yes"/>
      <point x="79" y="679"/>
      <point x="105" y="745"/>
      <point x="112" y="745" type="curve" smooth="yes"/>
      <point x="114" y="745"/>
      <point x="115" y="742"/>
      <point x="115" y="736" type="curve" smooth="yes"/>
      <point x="115" y="703"/>
      <point x="205" y="675"/>
      <point x="205" y="668" type="curve" smooth="yes"/>
      <point x="205" y="667"/>
      <point x="203" y="667"/>
      <point x="198" y="667" type="curve" smooth="yes"/>
      <point x="167" y="667"/>
      <point x="139" y="602"/>
      <point x="131" y="602" type="curve" smooth="yes"/>
      <point x="130" y="602"/>
      <point x="129" y="604"/>
    </contour>
  </outline>
</glyph>
<glyph name="onesuperior" format="1">
  <advance width="437"/>
  <unicode hex="00B9"/>
  <outline>
    <contour>
      <point x="171" y="422" type="line"/>
      <point x="171" y="956" type="line"/>
      <point x="20" y="956" type="line"/>
      <point x="20" y="1020" type="line"/>
      <point x="278" y="1061" type="line"/>
      <point x="278" y="422" type="line"/>
    </contour>
  </outline>
</glyph>
<glyph name="AE" format="1">
  <advance width="1438"/>
  <unicode hex="00C6"/>
  <outline>
    <contour>
      <point x="1158" y="84" type="line"/>
      <point x="1158" y="101" type="line"/>
      <point x="580" y="101" type="line"/>
      <point x="564" y="169" type="line"/>
      <point x="80" y="169" type="line"/>
      <point x="80" y="670" type="line"/>
      <point x="354" y="670" type="line"/>
      <point x="835" y="1152" type="line"/>
      <point x="1302" y="1152" type="line"/>
      <point x="1302" y="940" type="line"/>
      <point x="1029" y="940" type="line"/>
      <point x="1029" y="643" type="line"/>
      <point x="1197" y="643" type="line"/>
      <point x="1197" y="409" type="line"/>
      <point x="1044" y="409" type="line"/>
      <point x="1044" y="84" type="line"/>
    </contour>
    <contour>
      <point x="385" y="471" type="line"/>
      <point x="540" y="755" type="line"/>
      <point x="654" y="1076" type="line"/>
      <point x="654" y="793" type="line"/>
    </contour>
  </outline>
</glyph>
<glyph name="multiply" format="1">
  <advance width="850"/>
  <unicode hex="00D7"/>
  <outline>
    <contour>
      <point x="148" y="867" type="line"/>
      <point x="170" y="765" type="line"/>
      <point x="517" y="554" type="line"/>
      <point x="176" y="338" type="line"/>
      <point x="279" y="359" type="line"/>
      <point x="489" y="707" type="line"/>
      <point x="706" y="366" type="line"/>
      <point x="685" y="468" type="line"/>
      <point x="337" y="678" type="line"/>
      <point x="677" y="895" type="line"/>
      <point x="575" y="874" type="line"/>
      <point x="365" y="527" type="line"/>
    </contour>
  </outline>
</glyph>
<glyph name="divide" format="1">
  <advance width="695"/>
  <unicode hex="00F7"/>
  <outline>
    <contour>
      <point x="477" y="480" type="curve" smooth="yes"/>
      <point x="479" y="480"/>
      <point x="480" y="480"/>
      <point x="480" y="479" type="curve" smooth="yes"/>
      <point x="480" y="476"/>
      <point x="280" y="450"/>
      <point x="280" y="418" type="curve" smooth="yes"/>
      <point x="280" y="411"/>
      <point x="279" y="408"/>
      <point x="277" y="408" type="curve" smooth="yes"/>
      <point x="269" y="408"/>
      <point x="246" y="454"/>
      <point x="218" y="454" type="curve" smooth="yes"/>
      <point x="216" y="454"/>
      <point x="214" y="454"/>
      <point x="214" y="454" type="curve"/>
      <point x="214" y="457"/>
      <point x="416" y="483"/>
      <point x="416" y="515" type="curve" smooth="yes"/>
      <point x="416" y="522"/>
      <point x="417" y="524"/>
      <point x="419" y="524" type="curve" smooth="yes"/>
      <point x="427" y="524"/>
      <point x="450" y="480"/>
    </contour>
    <contour>
      <point x="63" y="481" type="line"/>
      <point x="63" y="550" type="line"/>
      <point x="632" y="550" type="line"/>
      <point x="632" y="481" type="line"/>
    </contour>
    <contour>
      <point x="411" y="1031" type="curve" smooth="yes"/>
      <point x="416" y="1031"/>
      <point x="418" y="1030"/>
      <point x="418" y="1029" type="curve" smooth="yes"/>
      <point x="418" y="1022"/>
      <point x="347" y="996"/>
      <point x="347" y="968" type="curve" smooth="yes"/>
      <point x="347" y="963"/>
      <point x="346" y="961"/>
      <point x="345" y="961" type="curve" smooth="yes"/>
      <point x="339" y="961"/>
      <point x="315" y="1032"/>
      <point x="285" y="1032" type="curve" smooth="yes"/>
      <point x="280" y="1032"/>
      <point x="278" y="1033"/>
      <point x="278" y="1034" type="curve" smooth="yes"/>
      <point x="278" y="1040"/>
      <point x="349" y="1064"/>
      <point x="349" y="1094" type="curve" smooth="yes"/>
      <point x="349" y="1099"/>
      <point x="350" y="1101"/>
      <point x="351" y="1101" type="curve" smooth="yes"/>
      <point x="357" y="1101"/>
      <point x="381" y="1031"/>
    </contour>
  </outline>
</glyph>
<glyph name="dotlessi" format="1">
  <advance width="325"/>
  <unicode hex="0131"/>
  <outline>
    <contour>
      <point x="152" y="631" type="line"/>
      <point x="208" y="631" type="line"/>
      <point x="208" y="501" type="line"/>
      <point x="152" y="501" type="line"/>
    </contour>
  </outline>
</glyph>
<glyph name="circumflex" format="1">
  <advance width="537"/>
  <unicode hex="02C6"/>
  <outline>
    <contour>
      <point x="151" y="1406" type="line"/>
      <point x="366" y="1438" type="line"/>
      <point x="318" y="1438" type="line"/>
      <point x="396" y="1356" type="line"/>
      <point x="298" y="1236" type="line"/>
      <point x="44" y="1378" type="line"/>
      <point x="41" y="1406" type="line"/>
    </contour>
  </outline>
</glyph>
<glyph name="caron" format="1">
  <advance width="539"/>
  <unicode hex="02C7"/>
  <outline>
    <contour>
      <point x="151" y="1438" type="line"/>
      <point x="41" y="1438" type="line"/>
      <point x="44" y="1466" type="line"/>
      <point x="298" y="1608" type="line"/>
      <point x="396" y="1488" type="line"/>
      <point x="318" y="1406" type="line"/>
      <point x="366" y="1406" type="line"/>
    </contour>
  </outline>
</glyph>
<glyph name="dotaccent" format="1">
  <advance width="545"/>
  <unicode hex="02D9"/>
  <outline>
    <contour>
      <point x="150" y="1270" type="line"/>
      <point x="150" y="1511" type="line"/>
      <point x="398" y="1511" type="line"/>
      <point x="398" y="1270" type="line"/>
    </contour>
  </outline>
</glyph>
<glyph name="ogonek" format="1">
  <advance width="439"/>
  <unicode hex="02DB"/>
  <outline>
    <contour>
      <point x="353" y="-248" type="line"/>
      <point x="272" y="-309"/>
      <point x="220" y="-354"/>
      <point x="191" y="-395" type="curve"/>
      <point x="170" y="-404"/>
      <point x="152" y="-408"/>
      <point x="136" y="-408" type="curve" smooth="yes"/>
      <point x="105" y="-408"/>
      <point x="86" y="-392"/>
      <point x="86" y="-364" type="curve" smooth="yes"/>
      <point x="86" y="-351"/>
      <point x="91" y="-335"/>
      <point x="100" y="-316" type="curve"/>
      <point x="100" y="-264"/>
      <point x="184" y="-218"/>
      <point x="258" y="-177" type="curve"/>
      <point x="347" y="-251" type="line"/>
      <point x="300" y="-309"/>
      <point x="235" y="-341"/>
      <point x="235" y="-369" type="curve"/>
      <point x="205" y="-380"/>
      <point x="183" y="-385"/>
      <point x="168" y="-385" type="curve" smooth="yes"/>
      <point x="150" y="-385"/>
      <point x="141" y="-378"/>
      <point x="141" y="-363" type="curve" smooth="yes"/>
      <point x="141" y="-353"/>
      <point x="146" y="-339"/>
      <point x="154" y="-321" type="curve"/>
      <point x="167" y="-270"/>
      <point x="207" y="-230"/>
      <point x="311" y="-155" type="curve"/>
    </contour>
  </outline>
</glyph>
<glyph name="tilde" format="1">
  <advance width="533"/>
  <unicode hex="02DC"/>
  <outline>
    <contour>
      <point x="326" y="1442" type="curve"/>
      <point x="325" y="1442"/>
      <point x="325" y="1442"/>
      <point x="325" y="1442" type="curve"/>
      <point x="325" y="1440"/>
      <point x="355" y="1432"/>
      <point x="355" y="1415" type="curve" smooth="yes"/>
      <point x="355" y="1414"/>
      <point x="354" y="1412"/>
      <point x="354" y="1411" type="curve" smooth="yes"/>
      <point x="335" y="1338"/>
      <point x="294" y="1294"/>
      <point x="237" y="1294" type="curve" smooth="yes"/>
      <point x="224" y="1294"/>
      <point x="119" y="1340"/>
      <point x="106" y="1344" type="curve"/>
      <point x="136" y="1416"/>
      <point x="126" y="1470"/>
      <point x="179" y="1470" type="curve" smooth="yes"/>
      <point x="179" y="1470"/>
      <point x="180" y="1468"/>
      <point x="182" y="1462" type="curve"/>
      <point x="167" y="1462"/>
      <point x="165" y="1453"/>
      <point x="165" y="1440" type="curve" smooth="yes"/>
      <point x="165" y="1436"/>
      <point x="165" y="1432"/>
      <point x="165" y="1427" type="curve" smooth="yes"/>
      <point x="165" y="1419"/>
      <point x="165" y="1410"/>
      <point x="161" y="1402" type="curve"/>
      <point x="162" y="1401"/>
      <point x="163" y="1400"/>
      <point x="163" y="1399" type="curve" smooth="yes"/>
      <point x="163" y="1395"/>
      <point x="140" y="1391"/>
      <point x="140" y="1391" type="curve"/>
      <point x="168" y="1461"/>
      <point x="216" y="1510"/>
      <point x="282" y="1532" type="curve"/>
      <point x="295" y="1532"/>
      <point x="404" y="1508"/>
      <point x="414" y="1503" type="curve"/>
      <point x="382" y="1415"/>
      <point x="390" y="1359"/>
      <point x="332" y="1359" type="curve" smooth="yes"/>
      <point x="325" y="1359"/>
      <point x="321" y="1368"/>
      <point x="316" y="1379" type="curve"/>
      <point x="324" y="1386"/>
      <point x="329" y="1401"/>
      <point x="329" y="1418" type="curve" smooth="yes"/>
      <point x="329" y="1425"/>
      <point x="328" y="1433"/>
    </contour>
  </outline>
</glyph>
<glyph name="hungarumlaut" format="1">
  <advance width="502"/>
  <unicode hex="02DD"/>
  <outline>
    <contour>
      <point x="166" y="1087" type="line"/>
      <point x="193" y="1313" type="line"/>
      <point x="360" y="1515" type="line"/>
      <point x="318" y="1267" type="line"/>
    </contour>
    <contour>
      <point x="143" y="1087" type="line"/>
      <point x="159" y="1313" type="line"/>
      <point x="343" y="1515" type="line"/>
      <point x="313" y="1267" type="line"/>
    </contour>
  </outline>
</glyph>
<glyph name="endash" format="1">
  <advance width="1108"/>
  <unicode hex="2013"/>
  <outline>
    <contour>
      <point x="149" y="500" type="line"/>
      <point x="149" y="657" type="line"/>
      <point x="960" y="657" type="line"/>
      <point x="960" y="500" type="line"/>
    </contour>
  </outline>
</glyph>
<glyph name="emdash" format="1">
  <advance width="1920"/>
  <unicode hex="2014"/>
  <outline>
    <contour>
      <point x="149" y="657" type="line"/>
      <point x="1771" y="657" type="line"/>
      <point x="1771" y="500" type="line"/>
      <point x="149" y="500" type="line"/>
    </contour>
  </outline>
</glyph>
<glyph name="fraction" format="1">
  <advance width="836"/>
  <unicode hex="2044"/>
  <outline>
    <contour>
      <point x="674" y="631" type="line"/>
      <point x="21" y="-19" type="line"/>
      <point x="167" y="724" type="line"/>
      <point x="820" y="1374" type="line"/>
    </contour>
  </outline>
</glyph>
<glyph name="product" format="1">
  <advance width="1251"/>
  <unicode hex="220F"/>
  <outline>
    <contour>
      <point x="467" y="1524" type="line"/>
      <point x="1155" y="854" type="line"/>
      <point x="1008" y="-227" type="line"/>
      <point x="911" y="315" type="line"/>
      <point x="841" y="1311" type="line"/>
      <point x="347" y="768" type="line"/>
      <point x="200" y="-227" type="line"/>
      <point x="103" y="442" type="line"/>
    </contour>
  </outline>
</glyph>
<glyph name="summation" format="1">
  <advance width="1104"/>
  <unicode hex="2211"/>
  <outline>
    <contour>
      <point x="155" y="1169" type="line"/>
      <point x="775" y="1370" type="line"/>
      <point x="775" y="1402" type="line"/>
      <point x="509" y="1402" type="line"/>
      <point x="917" y="831" type="line"/>
      <point x="324" y="360" type="line"/>
      <point x="1026" y="170" type="line"/>
      <point x="936" y="-101" type="line"/>
      <point x="368" y="-101" type="line"/>
      <point x="368" y="-151" type="line"/>
      <point x="477" y="325" type="line"/>
      <point x="66" y="887" type="line"/>
    </contour>
  </outline>
</glyph>
<glyph name="minus" format="1">
  <advance width="902"/>
  <unicode hex="2212"/>
  <outline>
    <contour>
      <point x="213" y="596" type="line"/>
      <point x="213" y="636" type="line"/>
      <point x="690" y="636" type="line"/>
      <point x="690" y="596" type="line"/>
    </contour>
  </outline>
</glyph>
<glyph name="integral" format="1">
  <advance width="466"/>
  <unicode hex="222B"/>
  <outline>
    <contour>
      <point x="189" y="381" type="curve"/>
      <point x="182" y="390"/>
      <point x="179" y="402"/>
      <point x="179" y="414" type="curve" smooth="yes"/>
      <point x="179" y="431"/>
      <point x="185" y="448"/>
      <point x="193" y="457" type="curve"/>
      <point x="185" y="485"/>
      <point x="173" y="494"/>
      <point x="152" y="494" type="curve" smooth="yes"/>
      <point x="122" y="494"/>
      <point x="99" y="534"/>
      <point x="90" y="534" type="curve" smooth="yes"/>
      <point x="88" y="534"/>
      <point x="74" y="496"/>
      <point x="74" y="485" type="curve" smooth="yes"/>
      <point x="74" y="470"/>
      <point x="81" y="461"/>
      <point x="92" y="461" type="curve" smooth="yes"/>
      <point x="151" y="461"/>
      <point x="192" y="555"/>
      <point x="204" y="885" type="curve"/>
      <point x="204" y="575"/>
      <point x="208" y="599"/>
      <point x="208" y="591" type="curve" smooth="yes"/>
      <point x="212" y="816"/>
      <point x="234" y="923"/>
      <point x="255" y="923" type="curve" smooth="yes"/>
      <point x="260" y="923"/>
      <point x="261" y="845"/>
      <point x="316" y="845" type="curve" smooth="yes"/>
      <point x="347" y="845"/>
      <point x="367" y="802"/>
      <point x="375" y="802" type="curve" smooth="yes"/>
      <point x="377" y="802"/>
      <point x="390" y="842"/>
      <point x="390" y="852" type="curve" smooth="yes"/>
      <point x="390" y="868"/>
      <point x="383" y="878"/>
      <point x="372" y="878" type="curve" smooth="yes"/>
      <point x="297" y="878"/>
      <point x="262" y="748"/>
      <point x="257" y="337" type="curve" smooth="yes"/>
      <point x="256" y="254"/>
      <point x="252" y="225"/>
      <point x="247" y="225" type="curve" smooth="yes"/>
      <point x="236" y="225"/>
      <point x="217" y="381"/>
    </contour>
  </outline>
</glyph>
<glyph name="apple" format="1">
  <advance width="1553"/>
  <unicode hex="F000"/>
  <outline>
    <contour>
      <point x="793" y="1216" type="curve"/>
      <point x="792" y="1224"/>
      <point x="791" y="1233"/>
      <point x="791" y="1253" type="curve" smooth="yes"/>
      <point x="791" y="1418"/>
      <point x="938" y="1581"/>
      <point x="1122" y="1614" type="curve"/>
      <point x="1123" y="1601"/>
      <point x="1124" y="1587"/>
      <point x="1124" y="1552" type="curve" smooth="yes"/>
      <point x="1124" y="1379"/>
      <point x="947" y="1214"/>
      <point x="817" y="1214" type="curve" smooth="yes"/>
      <point x="809" y="1214" type="line" smooth="yes"/>
      <point x="805" y="1214"/>
      <point x="798" y="1216"/>
    </contour>
    <contour>
      <point x="1462" y="403" type="curve"/>
      <point x="1309" y="70"/>
      <point x="1205" y="-35"/>
      <point x="1053" y="-35" type="curve" smooth="yes"/>
      <point x="996" y="-35"/>
      <point x="845" y="31"/>
      <point x="799" y="31" type="curve" smooth="yes"/>
      <point x="749" y="31"/>
      <point x="585" y="-35"/>
      <point x="541" y="-35" type="curve" smooth="yes"/>
      <point x="301" y="-35"/>
      <point x="70" y="458"/>
      <point x="70" y="737" type="curve" smooth="yes"/>
      <point x="70" y="1028"/>
      <point x="256" y="1231"/>
      <point x="518" y="1231" type="curve" smooth="yes"/>
      <point x="600" y="1231"/>
      <point x="755" y="1163"/>
      <point x="797" y="1163" type="curve" smooth="yes"/>
      <point x="834" y="1163"/>
      <point x="995" y="1231"/>
      <point x="1071" y="1231" type="curve" smooth="yes"/>
      <point x="1219" y="1231"/>
      <point x="1334" y="1180"/>
      <point x="1430" y="1069" type="curve"/>
      <point x="1294" y="982"/>
      <point x="1229" y="877"/>
      <point x="1229" y="741" type="curve" smooth="yes"/>
      <point x="1229" y="590"/>
      <point x="1311" y="471"/>
    </contour>
  </outline>
</glyph>
